<svg xmlns="http://www.w3.org/2000/svg" viewBox="0 0 100 100">
  <!-- Shadow -->
  <circle cx="51" cy="51" r="48" fill="rgba(0,0,0,0.08)"/>
  <!-- Main ball -->
  <circle cx="50" cy="50" r="47" fill="#ffffff" stroke="#1a1a1a" stroke-width="2"/>
  <!-- Black pentagon patches -->
  <polygon points="50,22 64,32 60,48 40,48 36,32" fill="#1a1a1a"/>
  <polygon points="50,78 64,68 60,52 40,52 36,68" fill="#1a1a1a"/>
  <polygon points="22,50 32,36 48,40 48,60 32,64" fill="#1a1a1a"/>
  <polygon points="78,50 68,36 52,40 52,60 68,64" fill="#1a1a1a"/>
  <polygon points="36,36 50,28 64,36 58,48 42,48" fill="#1a1a1a"/>
  <polygon points="64,64 50,72 36,64 42,52 58,52" fill="#1a1a1a"/>
  <!-- Stitch lines connecting patches -->
  <line x1="50" y1="22" x2="50" y2="28" stroke="#1a1a1a" stroke-width="1.2"/>
  <line x1="50" y1="78" x2="50" y2="72" stroke="#1a1a1a" stroke-width="1.2"/>
  <line x1="64" y1="32" x2="64" y2="36" stroke="#1a1a1a" stroke-width="1.2"/>
  <line x1="36" y1="32" x2="36" y2="36" stroke="#1a1a1a" stroke-width="1.2"/>
  <line x1="64" y1="68" x2="64" y2="64" stroke="#1a1a1a" stroke-width="1.2"/>
  <line x1="36" y1="68" x2="36" y2="64" stroke="#1a1a1a" stroke-width="1.2"/>
  <line x1="22" y1="50" x2="28" y2="50" stroke="#1a1a1a" stroke-width="1.2"/>
  <line x1="78" y1="50" x2="72" y2="50" stroke="#1a1a1a" stroke-width="1.2"/>
  <!-- Highlight/shine -->
  <ellipse cx="38" cy="35" rx="12" ry="8" fill="white" opacity="0.35" transform="rotate(-20, 38, 35)"/>
</svg>
